{
  "accessors": [
    {
      "bufferView": 2,
      "componentType": 5126,
      "count": 2793,
      "max": [
        1.0000001192092896,
        1.0,
        1.465177297592163
      ],
      "min": [
        -1.0000001192092896,
        -1.0,
        -1.0
      ],
      "type": "VEC3"
    },
    {
      "bufferView": 2,
      "byteOffset": 33516,
      "componentType": 5126,
      "count": 2793,
      "max": [
        1.0,
        1.0,
        1.0
      ],
      "min": [
        -1.0,
        -1.0,
        -1.0
      ],
      "type": "VEC3"
    },
    {
      "bufferView": 1,
      "componentType": 5126,
      "count": 2793,
      "max": [
        0.8750001192092896,
        1.0
      ],
      "min": [
        0.0,
        -5.538575351238251e-06
      ],
      "type": "VEC2"
    },
    {
      "bufferView": 0,
      "componentType": 5125,
      "count": 5145,
      "type": "SCALAR"
    },
    {
      "bufferView": 2,
      "byteOffset": 67032,
      "componentType": 5126,
      "count": 60,
      "max": [
        0.7931659817695618,
        -0.42889291048049927,
        1.4072442054748535
      ],
      "min": [
        0.014294246211647987,
        -0.9113344550132751,
        1.1497514247894287
      ],
      "type": "VEC3"
    },
    {
      "bufferView": 2,
      "byteOffset": 67752,
      "componentType": 5126,
      "count": 60,
      "max": [
        0.0,
        0.0,
        1.0
      ],
      "min": [
        -3.3835441115570575e-09,
        -0.05759093910455704,
        0.9983403086662292
      ],
      "type": "VEC3"
    },
    {
      "bufferView": 1,
      "byteOffset": 22344,
      "componentType": 5126,
      "count": 60,
      "max": [
        0.4088022708892822,
        0.7194913625717163
      ],
      "min": [
        0.0,
        0.0
      ],
      "type": "VEC2"
    },
    {
      "bufferView": 0,
      "byteOffset": 20580,
      "componentType": 5125,
      "count": 168,
      "type": "SCALAR"
    },
    {
      "bufferView": 2,
      "byteOffset": 68472,
      "componentType": 5126,
      "count": 31488,
      "max": [
        1.328185796737671,
        0.9392362236976624,
        0.8224414587020874
      ],
      "min": [
        -1.328185796737671,
        -0.971822202205658,
        -0.7782661318778992
      ],
      "type": "VEC3"
    },
    {
      "bufferView": 2,
      "byteOffset": 446328,
      "componentType": 5126,
      "count": 31488,
      "max": [
        0.9995534420013428,
        0.9998005628585815,
        0.9999880194664001
      ],
      "min": [
        -0.9995534420013428,
        -0.9984592199325562,
        -0.9992526769638062
      ],
      "type": "VEC3"
    },
    {
      "bufferView": 1,
      "byteOffset": 22824,
      "componentType": 5126,
      "count": 31488,
      "max": [
        1.1564854383468628,
        0.9919015169143677
      ],
      "min": [
        -0.13917098939418793,
        0.014583136886358261
      ],
      "type": "VEC2"
    },
    {
      "bufferView": 0,
      "byteOffset": 21252,
      "componentType": 5125,
      "count": 47232,
      "type": "SCALAR"
    },
    {
      "bufferView": 2,
      "byteOffset": 824184,
      "componentType": 5126,
      "count": 559,
      "max": [
        0.9999997019767761,
        1.0,
        0.9999994039535522
      ],
      "min": [
        -0.9999990463256836,
        -1.0,
        -0.9999987483024597
      ],
      "type": "VEC3"
    },
    {
      "bufferView": 2,
      "byteOffset": 830892,
      "componentType": 5126,
      "count": 559,
      "max": [
        0.0,
        1.0,
        -0.0
      ],
      "min": [
        0.0,
        1.0,
        -0.0
      ],
      "type": "VEC3"
    },
    {
      "bufferView": 1,
      "byteOffset": 274728,
      "componentType": 5126,
      "count": 559,
      "max": [
        1.0000001192092896,
        1.0
      ],
      "min": [
        0.0,
        0.0
      ],
      "type": "VEC2"
    },
    {
      "bufferView": 0,
      "byteOffset": 210180,
      "componentType": 5125,
      "count": 2880,
      "type": "SCALAR"
    }
  ],
  "asset": {
    "extras": {
      "author": "explainedlake98 (https://sketchfab.com/explainedlake98)",
      "license": "CC-BY-4.0 (http://creativecommons.org/licenses/by/4.0/)",
      "source": "https://sketchfab.com/3d-models/vintage-computer-563fe5d2fb2a48feb1b2cc7c28ebb2c1",
      "title": "Vintage Computer"
    },
    "generator": "Sketchfab-13.28.0",
    "version": "2.0"
  },
  "bufferViews": [
    {
      "buffer": 0,
      "byteLength": 221700,
      "name": "floatBufferViews",
      "target": 34963
    },
    {
      "buffer": 0,
      "byteLength": 279200,
      "byteOffset": 221700,
      "byteStride": 8,
      "name": "floatBufferViews",
      "target": 34962
    },
    {
      "buffer": 0,
      "byteLength": 837600,
      "byteOffset": 500900,
      "byteStride": 12,
      "name": "floatBufferViews",
      "target": 34962
    }
  ],
  "buffers": [
    {
      "byteLength": 1338500,
      "uri": "scene.bin"
    }
  ],
  "images": [
    {
      "uri": "textures/Monkey_baseColor.png"
    }
  ],
  "materials": [
    {
      "doubleSided": true,
      "name": "Computer.Chassis",
      "pbrMetallicRoughness": {
        "baseColorFactor": [
          0.538228,
          0.479954,
          0.368828,
          1.0
        ],
        "metallicFactor": 0.0
      }
    },
    {
      "doubleSided": true,
      "name": "Computer.Black",
      "pbrMetallicRoughness": {
        "baseColorFactor": [
          0.0,
          0.0,
          0.0,
          1.0
        ],
        "metallicFactor": 0.0,
        "roughnessFactor": 0.5
      }
    },
    {
      "doubleSided": true,
      "name": "Monkey",
      "pbrMetallicRoughness": {
        "baseColorTexture": {
          "index": 0
        },
        "metallicFactor": 0.0,
        "roughnessFactor": 0.5
      }
    },
    {
      "doubleSided": true,
      "name": "Computer.Monitor.Glass",
      "pbrMetallicRoughness": {
        "baseColorFactor": [
          0.0330427,
          0.0420281,
          0.0349322,
          1.0
        ],
        "metallicFactor": 0.0,
        "roughnessFactor": 0.5
      }
    }
  ],
  "meshes": [
    {
      "name": "Object_0",
      "primitives": [
        {
          "attributes": {
            "NORMAL": 1,
            "POSITION": 0,
            "TEXCOORD_0": 2
          },
          "indices": 3,
          "material": 0,
          "mode": 4
        }
      ]
    },
    {
      "name": "Object_1",
      "primitives": [
        {
          "attributes": {
            "NORMAL": 5,
            "POSITION": 4,
            "TEXCOORD_0": 6
          },
          "indices": 7,
          "material": 1,
          "mode": 4
        }
      ]
    },
    {
      "name": "Object_2",
      "primitives": [
        {
          "attributes": {
            "NORMAL": 9,
            "POSITION": 8,
            "TEXCOORD_0": 10
          },
          "indices": 11,
          "material": 2,
          "mode": 4
        }
      ]
    },
    {
      "name": "Object_3",
      "primitives": [
        {
          "attributes": {
            "NORMAL": 13,
            "POSITION": 12,
            "TEXCOORD_0": 14
          },
          "indices": 15,
          "material": 3,
          "mode": 4
        }
      ]
    }
  ],
  "nodes": [
    {
      "children": [
        1
      ],
      "matrix": [
        0.21518836915493011,
        0.0,
        0.0,
        0.0,
        0.0,
        4.778141641346825e-17,
        -0.21518836915493011,
        0.0,
        0.0,
        0.21518836915493011,
        4.778141641346825e-17,
        0.0,
        0.0,
        0.0,
        0.0,
        1.0
      ],
      "name": "Sketchfab_model"
    },
    {
      "children": [
        2
      ],
      "name": "root"
    },
    {
      "children": [
        3,
        6,
        8
      ],
      "matrix": [
        1.0,
        0.0,
        0.0,
        0.0,
        0.0,
        2.220446049250313e-16,
        1.0,
        0.0,
        0.0,
        -1.0,
        2.220446049250313e-16,
        0.0,
        0.0,
        0.0,
        0.0,
        1.0
      ],
      "name": "GLTF_SceneRootNode"
    },
    {
      "children": [
        4,
        5
      ],
      "matrix": [
        1.0,
        0.0,
        0.0,
        0.0,
        0.0,
        1.4498518705368042,
        0.0,
        0.0,
        0.0,
        0.0,
        1.0,
        0.0,
        0.0,
        0.0,
        0.0,
        1.0
      ],
      "name": "Cube_0"
    },
    {
      "mesh": 0,
      "name": "Object_4"
    },
    {
      "mesh": 1,
      "name": "Object_5"
    },
    {
      "children": [
        7
      ],
      "matrix": [
        0.047164298593997955,
        0.0,
        0.0,
        0.0,
        0.0,
        0.047164298593997955,
        0.0,
        0.0,
        0.0,
        0.0,
        0.006346707232296467,
        0.0,
        -0.7351580858230591,
        -0.7304176092147827,
        1.462184190750122,
        1.0
      ],
      "name": "Suzanne_4"
    },
    {
      "mesh": 2,
      "name": "Object_7"
    },
    {
      "children": [
        9
      ],
      "matrix": [
        0.9704335331916809,
        0.0,
        0.0,
        0.0,
        0.0,
        0.9704335331916809,
        0.0,
        0.0,
        0.0,
        0.0,
        0.0956173688173294,
        0.0,
        0.0,
        0.43677300214767456,
        1.2545899152755737,
        1.0
      ],
      "name": "Sphere_7"
    },
    {
      "mesh": 3,
      "name": "Object_9"
    }
  ],
  "samplers": [
    {
      "magFilter": 9729,
      "minFilter": 9987,
      "wrapS": 10497,
      "wrapT": 10497
    }
  ],
  "scene": 0,
  "scenes": [
    {
      "name": "Sketchfab_Scene",
      "nodes": [
        0
      ]
    }
  ],
  "textures": [
    {
      "sampler": 0,
      "source": 0
    }
  ]
}
